<?xml version="1.0" standalone="no"?>
<!DOCTYPE svg PUBLIC "-//W3C//DTD SVG 20010904//EN"
 "http://www.w3.org/TR/2001/REC-SVG-20010904/DTD/svg10.dtd">
<svg version="1.0" xmlns="http://www.w3.org/2000/svg"
 width="162.000000pt" height="169.000000pt" viewBox="0 0 162.000000 169.000000"
 preserveAspectRatio="xMidYMid meet">
<metadata>
Created by potrace 1.11, written by Peter Selinger 2001-2013
</metadata>
<g transform="translate(0.000000,169.000000) scale(0.100000,-0.100000)"
fill="#000000" stroke="none">
<path d="M177 1658 c-110 -146 -177 -392 -177 -644 0 -195 51 -368 153 -523
123 -186 371 -378 608 -471 l51 -20 90 40 c347 154 586 398 677 694 58 188 50
466 -21 686 -23 74 -87 201 -121 244 l-23 29 -60 -40 c-154 -104 -274 -105
-464 -6 l-86 44 -58 -35 c-176 -106 -351 -106 -489 -1 -25 19 -48 35 -51 35
-3 0 -16 -15 -29 -32z m780 -288 c83 -48 88 -78 23 -160 -17 -21 -30 -42 -30
-47 0 -4 28 -14 63 -20 99 -19 166 -44 172 -64 6 -17 -41 -99 -64 -113 -4 -3
-59 3 -122 14 -63 11 -119 20 -125 20 -30 0 -79 -202 -71 -296 6 -75 41 -154
76 -171 33 -16 73 1 147 62 69 56 84 57 84 8 0 -80 -83 -204 -164 -245 -22
-11 -66 -23 -98 -25 -238 -22 -344 263 -243 657 l6 25 -113 -7 c-145 -9 -152
-7 -143 40 4 21 13 51 20 68 12 29 17 31 96 42 46 7 110 12 141 12 l57 0 51
79 c62 96 119 151 158 151 15 0 50 -14 79 -30z"/>
</g>
</svg>
